Coordinates
version=1
nRows=43
nColumns=12
inDegrees=yes

Units are S.I. units (second, meters, Newtons, ...)
Angles are in degrees

endheader
time	SC_y	SC_z	SC_x	AC_y	AC_z	AC_x	GH_y	GH_z	GH_yy	EL_x	PS_y
       0.0              -16.69          17.89          21.15          37.62         -3.916         -19.29         -25.52         -4.149          130.0          131.3           97.6
   0.02016               -16.7          17.89          21.15          37.62         -3.917         -19.29         -25.53         -4.143          130.0          131.3           97.6
   0.04032               -16.7          17.89          21.15          37.63         -3.918         -19.28         -25.53         -4.137          130.0          131.3          97.59
   0.06048               -16.7          17.89          21.15          37.63         -3.918         -19.28         -25.54         -4.131          130.0          131.3          97.59
   0.08064               -16.7          17.89          21.15          37.64         -3.919         -19.27         -25.55         -4.124          130.0          131.3          97.58
    0.1008               -16.7          17.89          21.16          37.64         -3.921         -19.26         -25.56         -4.117          130.0          131.3          97.58
     0.121               -16.7          17.89          21.16          37.65         -3.922         -19.26         -25.57          -4.11          130.0          131.3          97.58
    0.1411              -16.71           17.9          21.16          37.65         -3.923         -19.25         -25.57         -4.102          130.0          131.3          97.57
    0.1613              -16.71           17.9          21.16          37.66         -3.924         -19.24         -25.58         -4.093          130.0          131.3          97.57
    0.1814              -16.71           17.9          21.17          37.67         -3.926         -19.24         -25.59         -4.084          130.0          131.3          97.56
    0.2016              -16.71           17.9          21.17          37.67         -3.927         -19.23         -25.61         -4.074          130.0          131.3          97.55
    0.2218              -16.72          17.91          21.17          37.68         -3.929         -19.22         -25.62         -4.063          130.1          131.3          97.55
    0.2419              -16.72          17.91          21.17          37.69          -3.93         -19.21         -25.63         -4.051          130.1          131.3          97.54
    0.2621              -16.72          17.91          21.18           37.7         -3.932          -19.2         -25.65         -4.039          130.1          131.3          97.53
    0.2822              -16.73          17.91          21.18          37.71         -3.934         -19.19         -25.66         -4.025          130.1          131.3          97.52
    0.3024              -16.73          17.92          21.19          37.72         -3.937         -19.18         -25.68         -4.011          130.1          131.3          97.51
    0.3226              -16.73          17.92          21.19          37.73         -3.939         -19.17         -25.69         -3.995          130.1          131.3           97.5
    0.3427              -16.74          17.93           21.2          37.75         -3.942         -19.15         -25.71         -3.977          130.1          131.3          97.49
    0.3629              -16.74          17.93           21.2          37.76         -3.945         -19.14         -25.74         -3.958          130.1          131.3          97.48
    0.3831              -16.75          17.94          21.21          37.78         -3.948         -19.12         -25.76         -3.937          130.1          131.3          97.47
    0.4032              -16.75          17.94          21.21           37.8         -3.951          -19.1         -25.78         -3.915          130.1          131.3          97.45
    0.4234              -16.76          17.95          21.22          37.81         -3.955         -19.08         -25.81         -3.889          130.1          131.3          97.44
    0.4435              -16.77          17.95          21.23          37.83         -3.959         -19.06         -25.84         -3.862          130.1          131.3          97.42
    0.4637              -16.78          17.96          21.24          37.86         -3.964         -19.03         -25.88         -3.831          130.1          131.3           97.4
    0.4839              -16.79          17.97          21.25          37.88         -3.969         -19.01         -25.92         -3.797          130.2          131.3          97.38
     0.504               -16.8          17.98          21.26          37.91         -3.975         -18.98         -25.96         -3.759          130.2          131.3          97.36
    0.5242              -16.81          17.99          21.27          37.95         -3.981         -18.94         -26.01         -3.716          130.2          131.3          97.33
    0.5443              -16.82           18.0          21.29          37.98         -3.988          -18.9         -26.06         -3.668          130.2          131.3           97.3
    0.5645              -16.83          18.01           21.3          38.02         -3.997         -18.86         -26.12         -3.614          130.2          131.3          97.27
    0.5847              -16.85          18.03          21.32          38.07         -4.006         -18.81         -26.19         -3.552          130.3          131.3          97.23
    0.6048              -16.87          18.05          21.34          38.12         -4.017         -18.75         -26.27         -3.482          130.3          131.3          97.18
     0.625              -16.89          18.07          21.37          38.18         -4.029         -18.69         -26.36         -3.401          130.3          131.3          97.13
    0.6451              -16.91          18.09          21.39          38.25         -4.043         -18.61         -26.47         -3.308          130.4          131.2          97.07
    0.6653              -16.94          18.11          21.42          38.34         -4.059         -18.52         -26.59         -3.199          130.4          131.2          97.01
    0.6855              -16.98          18.14          21.46          38.43         -4.078         -18.42         -26.73         -3.072          130.5          131.2          96.93
    0.7056              -17.01          18.18          21.51          38.54         -4.101          -18.3          -26.9         -2.923          130.5          131.2          96.83
    0.7258              -17.06          18.22          21.56          38.68         -4.128         -18.16          -27.1         -2.745          130.6          131.2          96.72
    0.7459              -17.12          18.27          21.62          38.84          -4.16         -17.99         -27.33         -2.533          130.7          131.2          96.59
    0.7661              -17.18          18.34           21.7          39.03         -4.199         -17.78         -27.62         -2.275          130.8          131.2          96.43
    0.7863              -17.27          18.41          21.79          39.27         -4.246         -17.53         -27.98         -1.961          130.9          131.2          96.23
    0.8064              -17.37          18.51           21.9          39.56         -4.305         -17.21         -28.41         -1.572          131.1          131.1          95.99
    0.8266               -17.5          18.62          22.04          39.93         -4.378         -16.82         -28.95         -1.088          131.3          131.1          95.69
    0.8467              -17.65          18.77          22.22          40.39          -4.47         -16.33         -29.64        -0.4782          131.5          131.1          95.31
